<?xml version="1.0" encoding="UTF-8"?>
<svg width="16px" height="16px" viewBox="0 0 16 16" version="1.1" xmlns="http://www.w3.org/2000/svg" xmlns:xlink="http://www.w3.org/1999/xlink">
    <title>编组 6备份 6</title>
    <g id="数字工信一体化平台" stroke="none" stroke-width="1" fill="none" fill-rule="evenodd">
        <g id="1215-企业详情-2" transform="translate(-24.000000, -66.000000)">
            <g id="编组-14备份-4" transform="translate(8.000000, 56.000000)">
                <g id="编组-6备份" transform="translate(16.000000, 10.000000)">
                    <rect id="矩形" x="0" y="0" width="16" height="16"></rect>
                    <g id="编组" transform="translate(1.000000, 1.000000)" fill="#A3A8C0" fill-rule="nonzero">
                        <g id="编组-2">
                            <path d="M0,0.875 L0,13.125 C0,13.6082492 0.391750844,14 0.875,14 L13.125,14 C13.6082492,14 14,13.6082492 14,13.125 L14,0.875 C14,0.391750844 13.6082492,0 13.125,0 L0.875,0 C0.391750844,0 0,0.391750844 0,0.875 Z M1.16666666,1.16666666 L12.8333333,1.16666666 L12.8333333,12.8333333 L1.16666666,12.8333333 L1.16666666,1.16666666 Z" id="形状"></path>
                            <path d="M11.1154167,3.50116666 L11.0833333,3.5 C11.2238505,3.50048102 11.3595689,3.55116851 11.466,3.64291666 L11.4765,3.65225 L11.4835,3.65866666 L11.5138333,3.68958334 L11.4765,3.65225 C11.4969167,3.67091666 11.5155833,3.69075 11.5325,3.71116666 L11.5383333,3.71875 L11.5704167,3.7625 C11.5875647,3.78846759 11.6025859,3.81577873 11.6153333,3.84416666 C11.8241215,3.93824718 11.9583333,4.14599424 11.9583333,4.375 L11.9583333,7.29166666 C11.9583333,7.61383277 11.6971661,7.875 11.375,7.875 C11.0528339,7.875 10.7916667,7.61383277 10.7916667,7.29166666 L10.7916667,5.26808334 L7.7595,8.59075 C7.46895174,8.90926373 6.98969502,8.96867572 6.63016666,8.73075 L6.56133334,8.68 L4.72908334,7.19016666 L3.39325,9.086 C3.22395463,9.32606282 2.90256101,9.40278743 2.64308334,9.26508334 L2.58066666,9.22658334 C2.34060384,9.05728796 2.26387924,8.73589434 2.40158334,8.47641666 L2.44008334,8.414 L3.95558334,6.26325 C4.23396145,5.8683164 4.77976345,5.77378036 5.17475,6.05208334 L5.22316666,6.08825 L7.08341666,7.60083334 L9.76091666,4.66666666 L8.16666666,4.66666666 C7.84453543,4.66661735 7.58342263,4.40546456 7.58342263,4.08333333 C7.58342263,3.7612021 7.84453543,3.5 8.16666666,3.5 L11.0909167,3.5 C11.0990906,3.50021713 11.1072591,3.5006061 11.1154167,3.50116666 Z" id="路径"></path>
                            <path d="M2.91666666,10.5 L11.0833333,10.5 C11.4722222,10.5 11.6666667,10.6944444 11.6666667,11.0833333 L11.6666667,11.0833333 C11.6666667,11.4722222 11.4722222,11.6666667 11.0833333,11.6666667 L2.91666666,11.6666667 C2.52777777,11.6666667 2.33333334,11.4722222 2.33333334,11.0833333 L2.33333334,11.0833333 C2.33333334,10.6944444 2.52777778,10.5 2.91666666,10.5 Z" id="路径"></path>
                        </g>
                    </g>
                </g>
            </g>
        </g>
    </g>
</svg>