<svg id="图层_1" data-name="图层 1" xmlns="http://www.w3.org/2000/svg" xmlns:xlink="http://www.w3.org/1999/xlink" viewBox="0 0 44 34.87"><defs><style>.cls-1{fill:#fff;}.cls-1,.cls-2,.cls-4{fill-rule:evenodd;}.cls-2{fill:url(#未命名的渐变);}.cls-3{mask:url(#mask);}.cls-4{fill:url(#未命名的渐变_2);}</style><radialGradient id="未命名的渐变" cx="-1140.87" cy="624.17" r="1.08" gradientTransform="matrix(30.71, -2.89, -2.89, -30.71, 36839.25, 15884.32)" gradientUnits="userSpaceOnUse"><stop offset="0" stop-color="#e63204"/><stop offset="1" stop-color="#ea5705"/></radialGradient><mask id="mask" x="9.29" y="15.12" width="32.9" height="19.75" maskUnits="userSpaceOnUse"><g id="mask-3"><path id="path-2" class="cls-1" d="M19.55,19.55c-3.3,1.14-14.78,5.9-8.33,13h0c4.5,4.92,23.49,3.11,24.6-14.46h0c-1.41.59-2.81,1.21-4,1.82h0a11.37,11.37,0,0,1-4.54,7.71h0c-7.2,5-12.13,1.17-10.42-1.47h0c4.31-6.62,20.46-9.09,25.35-11h0c-1.65.45-9.5-.07-22.64,4.43"/></g></mask><radialGradient id="未命名的渐变_2" cx="-1117.4" cy="616.51" r="1.67" gradientTransform="matrix(19.75, 0, 0, -19.75, 22076.95, 12200.53)" gradientUnits="userSpaceOnUse"><stop offset="0" stop-color="#01c3ea"/><stop offset="1" stop-color="#0467b7"/></radialGradient></defs><g id="页面-1"><g id="_1114-工作台-企业端" data-name="1114-工作台-企业端"><g id="编组"><g id="形状结合"><path class="cls-2" d="M8.93,22a11.71,11.71,0,0,0,.55,1.86l.18.45-.21.27A7.14,7.14,0,0,0,8.37,26.6l-.09.32-.07.28a5.7,5.7,0,0,0,.34,3.37l.12.27-.27-.25a14.1,14.1,0,0,1-4.07-8.23,5.94,5.94,0,0,0,2.7.26l.08,0h.1l.07,0h.06l0,0h.06l.09,0,.09,0,.09,0,.1,0,.1,0,.12,0,.12,0,.19-.07.17-.08L8.75,22Zm26-11.48h.37a42.86,42.86,0,0,1,8.73.81h0l-8.77,1.16,0,.22a7.8,7.8,0,0,1,.16,1.72v.21l-.77.06c-.78.07-1.54.15-2.29.24l-.74.09v-.2c-.14-1.72-.23-1.55-.25-1.5h-.31c-7.75-.28-21.75,7.58-24,8.14l-.08,0-.23,0c-3.16.39-6.29-3.11-6.7-3.59l0-.05c.23-.07,7-2.27,14.32-4.18l.73-.19c3.32-.86,6.7-1.64,9.61-2.13A61.89,61.89,0,0,1,34.9,10.48ZM4.5,12.25,3.44,15.67,1.6,14.55l.72-2.05ZM18.39,6.48h.45c.45,0,.89,0,1.33.11l.43.06-.31,0a12.73,12.73,0,0,0-10.3,7c-1.55.43-3.09.88-4.6,1.33A14.18,14.18,0,0,1,18.39,6.48ZM4.57,8l2.37.39L4.79,11.69,3.19,10Zm17-4.38H22c8.25.17,11.81,5.4,11.93,5.58h0l-4.19.11C29.66,9.26,28.23,7,22.24,6l-.35-.06-.38,0C13.08,4.78,6.35,10.43,6.15,10.6h0C6.25,10.43,9.5,5.38,17.73,4A22.07,22.07,0,0,1,21.55,3.64ZM9,4.08l2.2,1.26L7.84,7.79,6.9,5.49ZM30.06,2l2.1,1.41L31.8,5.89,28.27,3.7ZM14.18,1.33,16,3.09,12.15,4.65,11.8,2.19Zm10-1.08,2.47.53.61,2.46-4.1-.72ZM20.35,0l1.27,2.2-4.14.44L17.83.17Z"/></g><g class="cls-3"><path id="Fill-7" class="cls-4" d="M19.55,19.55c-3.3,1.14-14.78,5.9-8.33,13h0c4.5,4.92,23.49,3.11,24.6-14.46h0c-1.41.59-2.81,1.21-4,1.82h0a11.37,11.37,0,0,1-4.54,7.71h0c-7.2,5-12.13,1.17-10.42-1.47h0c4.31-6.62,20.46-9.09,25.35-11h0c-1.65.45-9.5-.07-22.64,4.43"/></g></g></g></g></svg>